<svg width="161" height="42" viewBox="0 0 161 42" fill="none" xmlns="http://www.w3.org/2000/svg">
<path d="M12.5968 16.6234C12.1464 16.2675 12.0697 15.6139 12.4256 15.1635L14.1876 12.9333C14.5435 12.4829 15.1971 12.4063 15.6475 12.7622V12.7622C16.0979 13.118 16.1746 13.7716 15.8187 14.2221L14.0567 16.4522C13.7008 16.9026 13.0472 16.9792 12.5968 16.6234V16.6234Z" fill="#4AFEBF"/>
<path d="M24.423 20.5147C24.423 22.4049 22.8908 23.9372 21.0006 23.9372C19.1104 23.9372 17.5781 22.4049 17.5781 20.5147C17.5781 18.6246 19.1104 17.0923 21.0006 17.0923C22.8908 17.0923 24.423 18.6246 24.423 20.5147Z" fill="#51EEDA"/>
<path fill-rule="evenodd" clip-rule="evenodd" d="M23.269 34.5126C22.0801 35.9118 19.9204 35.9118 18.7315 34.5126L8.88768 22.9279C7.94307 21.8163 7.94307 20.1839 8.88768 19.0722L9.87247 17.9133C10.4048 17.2868 11.3443 17.2104 11.9708 17.7428C12.5973 18.2752 12.6736 19.2146 12.1413 19.8411L11.1565 21.0001L21.0003 32.5848L23.8529 29.2276C24.3853 28.6011 25.3247 28.5248 25.9512 29.0571C26.5777 29.5895 26.6541 30.5289 26.1217 31.1554L23.269 34.5126ZM29.4231 24.9713C28.7966 24.4389 28.7203 23.4994 29.2526 22.8729L30.844 21.0001L21.0003 9.4154L18.927 11.8553C18.3947 12.4818 17.4552 12.5581 16.8287 12.0257C16.2022 11.4934 16.1259 10.5539 16.6582 9.92742L18.7315 7.48755C19.9204 6.08835 22.0801 6.08835 23.269 7.48755L33.1128 19.0722C34.0574 20.1839 34.0574 21.8163 33.1128 22.9279L31.5214 24.8008C30.9891 25.4273 30.0496 25.5036 29.4231 24.9713Z" fill="url(#paint0_linear_7369_461)"/>
<path fill-rule="evenodd" clip-rule="evenodd" d="M21 2.97725C11.0463 2.97725 2.97725 11.0463 2.97725 21C2.97725 30.9537 11.0463 39.0227 21 39.0227C21.8221 39.0227 22.4886 39.6892 22.4886 40.5114C22.4886 41.3335 21.8221 42 21 42C9.40202 42 0 32.598 0 21C0 9.40202 9.40202 0 21 0C21.8221 0 22.4886 0.66648 22.4886 1.48863C22.4886 2.31077 21.8221 2.97725 21 2.97725Z" fill="url(#paint1_linear_7369_461)"/>
<path fill-rule="evenodd" clip-rule="evenodd" d="M33.6755 35.9083C33.0968 35.3243 33.1011 34.3817 33.6851 33.8031C36.9829 30.5354 39.0228 26.0075 39.0228 21.0005C39.0228 15.9934 36.9829 11.4655 33.6851 8.19785C33.1011 7.61917 33.0968 6.67664 33.6755 6.09264C34.2542 5.50864 35.1967 5.50432 35.7807 6.083C39.6195 9.88684 42 15.167 42 21.0005C42 26.8339 39.6195 32.1141 35.7807 35.9179C35.1967 36.4966 34.2542 36.4923 33.6755 35.9083Z" fill="url(#paint2_linear_7369_461)"/>
<path d="M29.8578 39.029C29.8578 39.9128 29.1413 40.6293 28.2575 40.6293C27.3737 40.6293 26.6572 39.9128 26.6572 39.029C26.6572 38.1452 27.3737 37.4287 28.2575 37.4287C29.1413 37.4287 29.8578 38.1452 29.8578 39.029Z" fill="#4AFEBF"/>
<path d="M148.6 20.2598H145.7L151.92 6.25977H154.34L160.54 20.2598H157.64L156.38 17.3598H149.88L148.6 20.2598ZM153.1 9.79977L150.78 15.0798H155.48L153.14 9.79977H153.1Z" fill="white"/>
<path d="M144.001 20.2598H141.441V6.25977H144.001V20.2598Z" fill="white"/>
<path d="M130.544 20.2598H127.984V6.25977H134.004C136.244 6.25977 138.764 7.25977 138.764 10.3398C138.764 13.0198 136.784 14.0998 134.764 14.3198L139.124 20.2598H136.144L131.804 14.3598H130.544V20.2598ZM130.544 8.55977V12.1398H133.764C135.604 12.1398 136.164 11.3598 136.164 10.3398C136.164 9.25977 135.604 8.55977 133.764 8.55977H130.544Z" fill="white"/>
<path d="M118.289 20.52C114.249 20.52 111.109 17.34 111.109 13.26C111.109 9.18 114.249 6 118.289 6C122.329 6 125.469 9.18 125.469 13.26C125.469 17.34 122.329 20.52 118.289 20.52ZM118.289 18.18C121.109 18.18 122.889 15.88 122.889 13.26C122.889 10.64 121.109 8.34 118.289 8.34C115.489 8.34 113.709 10.64 113.709 13.26C113.709 15.88 115.489 18.18 118.289 18.18Z" fill="white"/>
<path d="M102.351 20.2598H96.8711V6.25977H102.351C106.391 6.25977 109.431 9.17977 109.431 13.2598C109.431 17.3398 106.391 20.2598 102.351 20.2598ZM99.4311 8.55977V17.9598H102.351C105.151 17.9598 106.851 15.8798 106.851 13.2598C106.851 10.6398 105.151 8.55977 102.351 8.55977H99.4311Z" fill="white"/>
<path d="M83.9037 20.2598H81.3438V6.25977H83.8037L90.9238 15.8998H90.9437V6.25977H93.5037V20.2598H91.0238L83.9237 10.5998H83.9037V20.2598Z" fill="white"/>
<path d="M66.3398 14.4998V6.25977H68.8998V14.3998C68.8998 16.9998 70.1798 18.1798 72.2398 18.1798C74.3198 18.1798 75.5798 16.9998 75.5798 14.3998V6.25977H78.1398V14.4998C78.1398 18.4798 75.4998 20.5198 72.2398 20.5198C68.9798 20.5198 66.3398 18.4798 66.3398 14.4998Z" fill="white"/>
<path d="M56.56 20.2598H54V6.25977H63.88V8.51977L56.56 8.49977V12.0798H63.7V14.3398H56.56V20.2598Z" fill="white"/>
<path d="M111.832 39.5999H110.332V31.0319H111.292L111.556 31.9679C112.012 31.4039 112.768 30.8999 113.896 30.8999C115.576 30.8999 116.776 32.3399 116.776 34.1639C116.776 35.9759 115.576 37.4279 113.896 37.4279C112.864 37.4279 112.156 36.8639 111.832 36.4199V39.5999ZM113.524 36.0599C114.556 36.0599 115.252 35.2439 115.252 34.1639C115.252 33.0719 114.556 32.2679 113.524 32.2679C112.528 32.2679 111.82 33.0959 111.82 34.1639C111.82 35.2199 112.528 36.0599 113.524 36.0599Z" fill="white" fill-opacity="0.6"/>
<path d="M102.411 34.1639C102.411 32.3279 103.791 30.8999 105.663 30.8999C107.535 30.8999 108.915 32.3279 108.915 34.1639C108.915 35.9999 107.535 37.4279 105.663 37.4279C103.791 37.4279 102.411 35.9999 102.411 34.1639ZM105.663 36.0599C106.683 36.0599 107.391 35.2439 107.391 34.1639C107.391 33.0719 106.683 32.2679 105.663 32.2679C104.643 32.2679 103.923 33.0719 103.923 34.1639C103.923 35.2439 104.643 36.0599 105.663 36.0599Z" fill="white" fill-opacity="0.6"/>
<path d="M100.992 37.2958H99.4922V28.2598H100.992V37.2958Z" fill="white" fill-opacity="0.6"/>
<path d="M98.0663 34.7399H93.4823C93.6623 35.6279 94.2983 36.1199 95.2343 36.1199C95.9183 36.1199 96.3263 35.9879 96.9863 35.5319L97.6823 36.5399C96.9143 37.1759 96.2063 37.4279 95.1863 37.4279C93.2903 37.4279 91.9463 35.9999 91.9463 34.1639C91.9463 32.3279 93.3503 30.8999 95.1263 30.8999C97.0583 30.8999 98.0663 32.3999 98.0663 34.1879V34.7399ZM93.4703 33.6599H96.5903C96.5183 32.9039 96.0743 32.1839 95.1383 32.1839C94.2863 32.1839 93.6383 32.7119 93.4703 33.6599Z" fill="white" fill-opacity="0.6"/>
<path d="M88.9589 37.2957H87.4709L84.9629 31.0317H86.5349L88.2029 35.3877H88.2269L89.8949 31.0317H91.4549L88.9589 37.2957Z" fill="white" fill-opacity="0.6"/>
<path d="M80.0273 37.2959H78.5273V31.0319H79.4993L79.7873 32.0519C80.0513 31.5839 80.7593 30.8999 81.7673 30.8999C83.0873 30.8999 84.0713 31.5839 84.0713 33.6239V37.2959H82.5833V33.8279C82.5833 32.7479 82.0793 32.2919 81.3353 32.2919C80.5553 32.2919 80.0273 32.9159 80.0273 33.8999V37.2959Z" fill="white" fill-opacity="0.6"/>
<path d="M76.876 37.296H70.876V28.896H76.816V30.276H72.412V32.376H76.6V33.756H72.412V35.916H76.876V37.296Z" fill="white" fill-opacity="0.6"/>
<path d="M63.9997 39.5997H62.4277L63.3877 37.1877L60.9277 31.0317H62.4877L64.1557 35.3877H64.1797L65.8477 31.0317H67.4077L63.9997 39.5997Z" fill="white" fill-opacity="0.6"/>
<path d="M54.96 37.2958H54V28.2598H55.5V31.8958C55.824 31.4638 56.532 30.8998 57.564 30.8998C59.244 30.8998 60.444 32.3398 60.444 34.1638C60.444 35.9758 59.244 37.4278 57.564 37.4278C56.436 37.4278 55.68 36.9118 55.224 36.3478L54.96 37.2958ZM57.192 36.0598C58.224 36.0598 58.92 35.2438 58.92 34.1638C58.92 33.0718 58.224 32.2678 57.192 32.2678C56.196 32.2678 55.488 33.0958 55.488 34.1638C55.488 35.2198 56.196 36.0598 57.192 36.0598Z" fill="white" fill-opacity="0.6"/>
<defs>
<linearGradient id="paint0_linear_7369_461" x1="21.0003" y1="35.562" x2="21.0003" y2="6.43815" gradientUnits="userSpaceOnUse">
<stop stop-color="#4AFEBF"/>
<stop offset="1" stop-color="#51EEDA"/>
</linearGradient>
<linearGradient id="paint1_linear_7369_461" x1="11.2443" y1="0" x2="11.2443" y2="42" gradientUnits="userSpaceOnUse">
<stop stop-color="#4AFEBF"/>
<stop offset="1" stop-color="#51EEDA"/>
</linearGradient>
<linearGradient id="paint2_linear_7369_461" x1="37.6221" y1="36.3491" x2="37.6222" y2="5.6518" gradientUnits="userSpaceOnUse">
<stop stop-color="#4AFEBF"/>
<stop offset="1" stop-color="#51EEDA"/>
</linearGradient>
</defs>
</svg>
